<svg width="25" height="24" viewBox="0 0 25 24" fill="none" xmlns="http://www.w3.org/2000/svg">
<g clip-path="url(#clip0_1_1071)">
<path fill-rule="evenodd" clip-rule="evenodd" d="M12.4731 22.56C6.65264 22.56 1.91312 17.8205 1.91312 12C1.91312 6.17952 6.65264 1.44 12.4731 1.44C18.2936 1.44 23.0331 6.17952 23.0331 12C23.0331 17.8205 18.2936 22.56 12.4731 22.56ZM5.92592 19.1722C7.71331 20.8091 10.0494 21.7165 12.4731 21.7152C14.8968 21.7165 17.2329 20.8091 19.0203 19.1722C18.4376 17.8378 16.7307 17.1274 15.3531 16.5619C13.9266 15.9792 13.7403 15.2102 13.7403 14.543C13.7403 13.8922 14.0533 13.1741 14.5256 12.7517C15.1592 12.1949 15.4894 11.4259 15.4894 10.5216C15.4894 9.00096 14.5429 7.36224 12.4731 7.36224C10.4456 7.36224 9.5336 8.95008 9.5336 10.5216C9.5336 11.4682 9.83696 12.2198 10.4456 12.7517C11.0024 13.2509 11.2059 14.0275 11.2059 14.543C11.2059 15.2189 11.0197 15.9792 9.65072 16.537C8.21552 17.1283 6.50864 17.8378 5.92592 19.1722ZM12.4731 6.5088C14.7118 6.5088 16.3342 8.18976 16.3342 10.513C16.3342 11.6621 15.9022 12.6586 15.0834 13.3766C14.7963 13.6387 14.5851 14.1206 14.5851 14.5344C14.5851 14.9059 14.5851 15.3283 15.6075 15.7507C17.0264 16.3421 18.8341 17.0947 19.6453 18.5472C21.2834 16.764 22.1912 14.4301 22.1883 12.0086C22.1883 6.65184 17.8299 2.29344 12.4731 2.29344C7.11632 2.29344 2.75792 6.65184 2.75792 12.0086C2.75506 14.4301 3.66281 16.764 5.30096 18.5472C6.11216 17.0938 7.91984 16.3421 9.27152 15.7843C10.3698 15.337 10.3698 14.8973 10.3698 14.543C10.3698 14.1878 10.2171 13.6723 9.89648 13.3853C9.11888 12.6931 8.70608 11.7043 8.70608 10.5216C8.68784 8.15616 10.2507 6.5088 12.4731 6.5088Z" fill="#474747" stroke="#474747" stroke-width="0.96"/>
</g>
<defs>
<clipPath id="clip0_1_1071">
<rect width="24" height="24" fill="white" transform="translate(0.953125)"/>
</clipPath>
</defs>
</svg>
