<svg width="25" height="24" viewBox="0 0 25 24" fill="none" xmlns="http://www.w3.org/2000/svg">
<g clip-path="url(#clip0_1_1060)">
<g clip-path="url(#clip1_1_1060)">
<path d="M17.9789 0.92308C21.5598 0.92308 24.4688 3.83077 24.4688 7.41231C24.4688 8.62523 24.1038 9.848 23.3746 11.0228C22.0115 13.2277 13.1986 22.528 12.8244 22.9231C12.7266 23.0186 12.5962 23.0736 12.4595 23.0769C12.3254 23.0769 12.2004 23.0191 12.1137 22.9231C11.7395 22.5286 2.9266 13.2277 1.56352 11.0228C0.833673 9.848 0.46875 8.62523 0.46875 7.41231C0.46875 3.84062 3.37767 0.92308 6.9586 0.92308C9.22444 0.92308 11.2977 2.09785 12.4688 3.97539C13.6398 2.09785 15.7137 0.92308 17.9789 0.92308ZM12.518 9.40924H12.4171C11.318 9.40924 11.126 10.1292 10.9198 10.8855C10.8223 11.3624 10.6325 11.8156 10.3611 12.2197C10.0909 12.552 9.7469 12.8006 9.3629 12.9397C8.78629 13.1932 8.18198 13.4775 8.18198 14.7151C8.18198 15.5674 8.42937 16.48 10.0681 16.5262C10.5155 16.5649 10.9598 16.4123 11.3088 16.1003C11.6355 15.8234 12.0435 15.6911 12.4534 15.7299C12.8632 15.6923 13.2712 15.824 13.598 16.1003C13.9235 16.3957 14.3358 16.5471 14.7561 16.5262H14.8386C16.5235 16.4806 16.7475 15.5674 16.7475 14.7151C16.7475 13.5723 16.2404 13.2468 15.7051 13L15.5709 12.9397C15.1857 12.8006 14.8398 12.552 14.5684 12.2197C14.302 11.8228 14.1131 11.368 14.0146 10.8855C13.8084 10.1298 13.6164 9.40924 12.5174 9.40924H12.518ZM16.6201 7.86708C15.9469 7.664 15.2509 8.27262 15.0312 9.24185C14.8115 10.2111 15.1592 11.1539 15.8097 11.352C16.4601 11.5502 17.1697 10.936 17.3986 9.97231C17.6232 9.00862 17.2934 8.07016 16.6201 7.86708ZM9.8989 9.24185C9.68352 8.27816 8.96044 7.66954 8.30998 7.86708C7.65952 8.06462 7.31183 9.00862 7.53644 9.97231C7.76537 10.936 8.4749 11.5348 9.12537 11.3422C9.77583 11.1495 10.1143 10.2062 9.8989 9.24247V9.24185ZM14.4817 5.49354C13.8361 5.29047 13.1217 5.90954 12.8977 6.87323C12.6688 7.83693 13.0214 8.77539 13.6712 8.97847C14.3211 9.18154 15.0355 8.56247 15.2601 7.59877C15.4847 6.63508 15.1272 5.69662 14.4817 5.49354ZM12.0417 6.87323C11.8263 5.90954 11.1032 5.29047 10.4528 5.49354C9.80291 5.69108 9.46383 6.63508 9.67921 7.59877C9.8946 8.56247 10.6177 9.18154 11.2681 8.97847C11.9186 8.77539 12.2571 7.83693 12.0417 6.87323Z" fill="#00BF8F"/>
</g>
</g>
<defs>
<clipPath id="clip0_1_1060">
<rect width="24" height="24" fill="white" transform="translate(0.46875)"/>
</clipPath>
<clipPath id="clip1_1_1060">
<rect width="24" height="22.1538" fill="white" transform="translate(0.46875 0.92308)"/>
</clipPath>
</defs>
</svg>
