<svg width="60" height="30" viewBox="0 0 60 30" fill="none" xmlns="http://www.w3.org/2000/svg">
<g clip-path="url(#clip0_1_1035)">
<path fill-rule="evenodd" clip-rule="evenodd" d="M20.2001 20.747C20.1821 20.952 20.0661 21.06 19.8511 21.069L14.1691 21.293C13.9931 21.302 13.8751 21.229 13.8191 21.069L10.8871 12.682L8.08206 21.042C8.01606 21.22 7.90006 21.302 7.73206 21.292L2.27606 21.069C2.07906 21.06 1.97606 20.963 1.96806 20.775L0.0860596 1.33501C0.0860596 1.10201 0.20406 0.983006 0.43606 0.983006H5.09406C5.31006 0.983006 5.42406 1.09201 5.43206 1.30701L6.30206 13.664L8.63006 3.31201C8.66506 3.14401 8.76806 3.06001 8.93706 3.06001H12.8511C13.0391 3.06001 13.1501 3.14401 13.1861 3.31201L15.4021 13.664L16.3571 1.19401C16.3651 0.970006 16.4871 0.864006 16.7231 0.872006L21.4061 1.11101C21.6211 1.11901 21.7291 1.23201 21.7291 1.44701L20.2011 20.747H20.2001ZM31.4781 14.66C31.1799 14.6339 30.8811 14.6152 30.5821 14.604C28.5691 14.604 27.5641 15.17 27.5641 16.302C27.5641 17.255 28.2941 17.731 29.7541 17.731C30.2661 17.731 30.7861 17.685 31.3091 17.591L31.4781 14.661V14.66ZM36.0061 11.003C36.0061 11.79 35.8401 14.943 35.5031 20.465C35.5031 20.69 35.4801 21.02 35.4331 21.447C35.3961 21.672 35.2731 21.785 35.0681 21.785L31.4221 21.813C31.1701 21.813 31.0421 21.691 31.0421 21.447C31.0421 21.429 31.0721 20.968 31.1281 20.06C29.948 20.4797 28.7045 20.6932 27.4521 20.691C25.8341 20.691 24.5351 20.364 23.5541 19.709C22.4041 18.932 21.8291 17.779 21.8291 16.244C21.8291 14.468 22.7791 13.149 24.6721 12.29C26.0961 11.655 27.8271 11.336 29.8651 11.336C30.3351 11.336 30.9271 11.383 31.6481 11.476C31.6651 10.996 31.6741 10.739 31.6741 10.7C31.6741 10.164 31.4921 9.71101 31.1281 9.34001C30.954 9.159 30.7444 9.01597 30.5125 8.91994C30.2805 8.82391 30.0311 8.77694 29.7801 8.78201C29.0981 8.78201 28.5751 9.03201 28.2101 9.53201C27.8441 10.031 27.6401 10.283 27.5931 10.294L23.3411 10.872C23.0511 10.91 22.9061 10.793 22.9061 10.522C22.9233 10.485 22.938 10.447 22.9501 10.408C23.4001 8.89801 24.2031 7.71101 25.3621 6.84301C26.5221 5.97601 27.8871 5.54301 29.4581 5.54301C33.8231 5.54301 36.0061 7.36301 36.0061 11.003ZM46.3601 16.048L46.3331 11.251C44.1901 11.298 43.1191 12.197 43.1191 13.946C43.1191 15.386 43.9621 16.106 45.6441 16.106C45.7941 16.106 46.0321 16.086 46.3591 16.048M51.7041 5.24801C51.7491 9.66101 51.7141 13.843 51.5911 17.788C51.5281 19.657 51.4891 20.682 51.4781 20.858C51.4231 22.065 51.3151 23.084 51.1551 23.915C50.8191 25.714 50.0091 27.113 48.7301 28.117C47.4501 29.123 45.8821 29.627 44.0301 29.627C42.9471 29.627 42.1031 29.504 41.5061 29.262C41.3361 29.185 41.2521 29.07 41.2521 28.912V24.52C41.2521 24.285 41.3871 24.169 41.6461 24.169C41.7881 24.169 42.0151 24.189 42.3271 24.225C42.6401 24.261 42.8771 24.281 43.0341 24.281C45.2881 24.281 46.4181 23.458 46.4181 21.812V19.78C45.6763 20.0284 44.8983 20.1511 44.1161 20.143C42.0291 20.143 40.3431 19.495 39.0521 18.193C37.7621 16.893 37.1161 15.203 37.1161 13.117C37.1161 10.928 37.8781 9.19501 39.4021 7.91301C40.8331 6.70701 42.6661 6.10301 44.9001 6.10301C45.3231 6.10301 45.7801 6.15101 46.2751 6.24501V5.17901C46.2751 4.95301 46.3931 4.84101 46.6251 4.84101L51.3541 4.86801C51.5861 4.86801 51.7041 4.99501 51.7041 5.24801ZM59.1801 0.507006L58.9821 15.445C58.9821 15.67 58.8681 15.783 58.6321 15.783L53.7791 15.727C53.5451 15.727 53.4331 15.609 53.4451 15.377L53.7521 0.507006C53.7621 0.274006 53.8791 0.156006 54.1021 0.156006H58.8451C59.0751 0.156006 59.1881 0.274006 59.1801 0.506006M59.7271 19.288C59.7271 19.954 59.3221 20.473 58.5041 20.846C57.8538 21.1451 57.1458 21.2977 56.4301 21.293C55.689 21.3011 54.9555 21.1436 54.2831 20.832C53.4721 20.438 53.0631 19.898 53.0631 19.205C53.0631 18.559 53.4771 18.048 54.2981 17.675C54.9495 17.3792 55.6566 17.2261 56.3721 17.226C57.1121 17.226 57.8121 17.386 58.4771 17.702C59.3101 18.095 59.7271 18.624 59.7271 19.288Z" fill="#00BF8F"/>
</g>
<defs>
<clipPath id="clip0_1_1035">
<rect width="60" height="30" fill="white"/>
</clipPath>
</defs>
</svg>
