<svg width="25" height="24" viewBox="0 0 25 24" fill="none" xmlns="http://www.w3.org/2000/svg">
<g clip-path="url(#clip0_1_1028)">
<path d="M12.3856 24C12.3232 24.0012 12.2613 23.9882 12.2046 23.962C1.33462 19.486 1.37362 8.778 1.39262 4.744V4.322C1.39262 4.052 1.60262 3.842 1.87062 3.842H3.23762C6.55462 3.842 9.21162 2.142 12.1086 0.0859964C12.1919 0.0296354 12.2901 -0.000488281 12.3906 -0.000488281C12.4912 -0.000488281 12.5894 0.0296354 12.6726 0.0859964C15.5596 2.142 18.2266 3.842 21.5436 3.842H22.9106C23.1786 3.842 23.3886 4.052 23.3886 4.322V4.754C23.4086 8.788 23.4466 19.486 12.5866 23.971C12.5215 23.9893 12.4543 23.9991 12.3866 24H12.3856ZM16.1786 17.266C16.8026 17.19 17.3466 16.891 17.6896 16.066C18.3516 14.48 17.1876 13.51 16.1636 12.658C15.9166 12.452 15.6636 12.241 15.4336 12.023C15.2856 11.881 15.1356 11.691 14.9756 11.489C14.4256 10.792 13.6696 9.835 12.2216 10.013L12.1646 10.02C10.7156 10.198 10.2146 11.314 9.84962 12.128C9.74362 12.368 9.64062 12.594 9.53162 12.767C9.36162 13.039 9.15862 13.311 8.96362 13.577C8.18362 14.635 7.29662 15.832 8.31562 17.202C9.24862 18.456 10.3976 18.01 11.5056 17.574C12.0036 17.378 12.5206 17.179 13.0356 17.115L13.0926 17.108C13.6126 17.045 14.1626 17.118 14.6986 17.192C15.2006 17.256 15.7116 17.324 16.1786 17.266ZM8.07862 12.234C8.32454 12.206 8.55542 12.1014 8.73862 11.935C9.30462 11.425 9.30062 10.454 8.72262 9.76C8.41062 9.388 7.98562 9.154 7.55062 9.12C7.38401 9.10596 7.21627 9.12555 7.05737 9.1776C6.89847 9.22965 6.75165 9.3131 6.62562 9.423C6.05962 9.933 6.06262 10.905 6.64062 11.598C6.95262 11.971 7.37762 12.204 7.81262 12.238C7.90562 12.246 7.99262 12.245 8.07862 12.234ZM16.7126 11.174C16.7976 11.164 16.8826 11.144 16.9666 11.118C17.3796 10.981 17.7406 10.651 17.9486 10.214C18.3426 9.402 18.1106 8.458 17.4376 8.1C17.2887 8.02386 17.126 7.97844 16.9592 7.96641C16.7924 7.95439 16.6249 7.97601 16.4666 8.03C16.0526 8.169 15.6966 8.498 15.4846 8.935C15.0906 9.748 15.3226 10.691 15.9946 11.049C16.2176 11.162 16.4596 11.205 16.7126 11.174ZM10.3986 9.385C10.5036 9.373 10.6066 9.345 10.7026 9.305C11.4356 9.007 11.7516 8.035 11.4136 7.137C11.2276 6.643 10.8746 6.255 10.4456 6.071C10.2908 6.00042 10.1235 5.96158 9.95346 5.95677C9.78342 5.95196 9.61414 5.98128 9.45562 6.043C8.72362 6.341 8.40762 7.313 8.74562 8.21C8.93162 8.705 9.28362 9.092 9.70762 9.277C9.93762 9.374 10.1746 9.413 10.3976 9.385H10.3986ZM13.7716 8.971C13.9956 8.944 14.2166 8.854 14.4116 8.704C14.7826 8.421 15.0256 7.956 15.0876 7.436C15.1976 6.484 14.6566 5.616 13.8736 5.505C13.7048 5.48093 13.5328 5.49224 13.3686 5.5382C13.2043 5.58417 13.0514 5.66379 12.9196 5.772C12.5476 6.055 12.2996 6.52 12.2386 7.041C12.1286 7.993 12.6696 8.86 13.4526 8.971C13.5606 8.983 13.6666 8.984 13.7726 8.971H13.7716Z" fill="white"/>
</g>
<defs>
<clipPath id="clip0_1_1028">
<rect width="24" height="24" fill="white" transform="translate(0.390625)"/>
</clipPath>
</defs>
</svg>
